PathFileType	4	(X/Y/Z)	 s02c0001.trc
DataRate	CameraRate	NumFrames	NumMarkers	Units	OrigDataRate	OrigDataStartFrame	OrigNumFrames
200	200	4	49	mm	200	1001	2000
Frame#	Time	racr			lacr			c7			jug			rlel			rdr			llel			ldr			s2			lic			ric			lasi			rasi			rpsi			lpsi			rgt			lgt			rth1			rth2			rth3			rth4			rlfc			rmfc			rsh1			rsh2			rsh3			rsh4			rlmal			rmmal			rcal			rtoe			rmt5			rmt1			lth1			lth2			lth4			lth3			llfc			lmfc			lsh1			lsh2			lsh3			lsh4			llmal			lmmal			lcal			ltoe			lmt1			lmt5			
		X1	Y1	Z1	X2	Y2	Z2	X3	Y3	Z3	X4	Y4	Z4	X5	Y5	Z5	X6	Y6	Z6	X7	Y7	Z7	X8	Y8	Z8	X9	Y9	Z9	X10	Y10	Z10	X11	Y11	Z11	X12	Y12	Z12	X13	Y13	Z13	X14	Y14	Z14	X15	Y15	Z15	X16	Y16	Z16	X17	Y17	Z17	X18	Y18	Z18	X19	Y19	Z19	X20	Y20	Z20	X21	Y21	Z21	X22	Y22	Z22	X23	Y23	Z23	X24	Y24	Z24	X25	Y25	Z25	X26	Y26	Z26	X27	Y27	Z27	X28	Y28	Z28	X29	Y29	Z29	X30	Y30	Z30	X31	Y31	Z31	X32	Y32	Z32	X33	Y33	Z33	X34	Y34	Z34	X35	Y35	Z35	X36	Y36	Z36	X37	Y37	Z37	X38	Y38	Z38	X39	Y39	Z39	X40	Y40	Z40	X41	Y41	Z41	X42	Y42	Z42	X43	Y43	Z43	X44	Y44	Z44	X45	Y45	Z45	X46	Y46	Z46	X47	Y47	Z47	X48	Y48	Z48	X49	Y49	Z49	
1001	5.0050	566.888859	1430.235898	565.067500	593.817520	1422.881601	161.826507	546.372008	1480.014945	357.694718	649.371892	1382.358417	365.662310	535.642554	1144.616103	635.052706	628.335580	1019.077566	779.535642	567.524758	1114.286357	128.371861	740.915218	1039.850158	21.662176	478.026797	974.142764	364.008697	635.948047	1017.946566	228.731222	603.136722	1020.414210	514.450997	682.565655	968.501686	260.823794	652.204495	971.642280	494.929198	487.784867	1000.442623	408.627757	499.408962	996.246531	324.149417	553.118216	886.561195	538.949716	569.174993	886.308059	205.299825	588.124176	802.040710	551.879028	605.980118	714.325412	549.060631	579.615436	633.025677	558.653970	639.200416	712.185707	531.045485	559.300855	499.255943	515.443105	562.738266	484.344593	411.265744	529.960751	397.931898	532.752316	544.047054	311.259757	517.509485	514.556439	230.066050	513.866852	564.399497	313.529944	483.785039	503.193658	101.231538	499.485058	515.090361	114.602382	421.630383	451.175849	53.617646	442.784779	726.939759	86.639504	498.849089	615.359848	48.325880	537.561743	657.216791	71.492364	436.114113	597.551014	759.858249	188.019873	607.254580	672.985268	194.532854	641.287396	670.189949	210.263529	570.377399	592.732405	203.485959	562.955254	495.025162	224.156417	559.365914	469.055132	322.117399	536.982406	399.335101	200.003270	555.233402	315.768124	215.260697	529.287630	228.777119	214.398297	574.804082	318.126963	250.420549	518.880954	114.171790	231.607620	541.743543	118.665039	309.737727	468.774409	58.332136	277.561181	751.429668	81.895573	249.412790	674.176398	70.419475	302.651962	646.739235	46.394926	196.247811	
1002	5.0100	566.876015	1430.259060	565.056409	593.823204	1422.873459	161.815375	546.317615	1480.018461	357.726461	649.373397	1382.360513	365.647840	535.621913	1144.602234	635.031778	628.306656	1019.067263	779.528031	567.525476	1114.286341	128.372905	740.924390	1039.833750	21.671172	478.021011	974.153817	364.009838	635.943284	1017.933876	228.730333	603.139707	1020.418526	514.450066	682.552903	968.503774	260.810678	652.187048	971.647315	494.933010	487.783118	1000.444025	408.611929	499.408960	996.246524	324.149420	553.128492	886.558601	538.947018	569.177110	886.301786	205.299482	588.138440	802.043697	551.892551	605.976155	714.324549	549.067744	579.636969	633.016946	558.641904	639.204089	712.178632	531.046801	559.299977	499.247653	515.443645	562.804207	484.368227	411.283274	529.981607	397.925092	532.756559	544.057303	311.257304	517.517109	514.541018	230.054502	513.858411	564.399662	313.535002	483.786614	503.178146	101.241949	499.491154	515.075324	114.583335	421.629119	451.186679	53.607289	442.789281	726.927999	86.629995	498.850294	615.374898	48.309491	537.567472	657.210084	71.507470	436.121902	597.558405	759.855123	188.025639	607.274853	672.973530	194.522653	641.288789	670.204227	210.262646	570.367007	592.722624	203.487596	562.966520	495.035734	224.140775	559.364542	469.055973	322.124665	536.985790	399.326589	200.015143	555.229130	315.774959	215.259206	529.289288	228.776513	214.390840	574.830690	318.113343	250.418295	518.892835	114.168531	231.613641	541.743540	118.665038	309.737742	468.767774	58.330046	277.557620	751.445089	81.887195	249.415832	674.180182	70.428111	302.646654	646.741973	46.391043	196.268442	
1003	5.0150	566.911588	1430.240456	565.061295	593.817181	1422.875375	161.807394	546.347334	1480.027959	357.698696	649.365325	1382.355959	365.646232	535.619892	1144.622386	635.029141	628.296396	1019.066379	779.510753	567.538983	1114.267479	128.363267	740.929735	1039.840091	21.674865	478.022377	974.143286	363.986102	635.937768	1017.951893	228.710503	603.124581	1020.411661	514.438145	682.554444	968.498752	260.810447	652.216112	971.644385	494.939451	487.778987	1000.431691	408.619847	499.404359	996.258509	324.153990	553.129917	886.565139	538.947434	569.169517	886.302587	205.285971	588.130214	802.046722	551.878125	605.979109	714.326867	549.058339	579.644075	633.030362	558.640972	639.205001	712.175131	531.039111	559.311477	499.247889	515.433834	562.807063	484.362895	411.271538	529.997141	397.925133	532.758876	544.043239	311.261247	517.515087	514.541043	230.059876	513.860138	564.403971	313.537726	483.769368	503.164879	101.223033	499.501023	515.071132	114.600360	421.629963	451.178132	53.633710	442.778123	726.920692	86.623202	498.863291	615.370263	48.265282	537.605928	657.214756	71.493353	436.121581	597.552491	759.852476	188.021865	607.273572	672.969926	194.504733	641.297705	670.179250	210.257274	570.357407	592.730128	203.476808	562.929089	495.019640	224.140173	559.361802	469.062597	322.115251	536.979667	399.325911	200.000794	555.219611	315.768012	215.268799	529.272672	228.788916	214.395842	574.802033	318.129329	250.418339	518.899538	114.156191	231.624147	541.740335	118.672312	309.747759	468.769550	58.334218	277.552406	751.425802	81.880058	249.413748	674.171359	70.424860	302.649111	646.736612	46.397402	196.271184	
1004	5.0200	566.893188	1430.265967	565.036886	593.797825	1422.868928	161.787518	546.334206	1480.015522	357.686119	649.376335	1382.355860	365.628262	535.604384	1144.617165	635.011992	628.288468	1019.052330	779.502360	567.526027	1114.272247	128.368806	740.943751	1039.834519	21.663088	478.024913	974.140076	363.986552	635.939141	1017.943948	228.708251	603.122886	1020.416327	514.433370	682.559886	968.497994	260.790240	652.205445	971.640048	494.922822	487.773181	1000.443852	408.619239	499.404356	996.258502	324.153992	553.132038	886.559549	538.940034	569.177445	886.298884	205.287130	588.126449	802.042701	551.875408	605.978901	714.323174	549.063139	579.641040	633.031752	558.640534	639.197505	712.171487	531.029456	559.280328	499.258482	515.431032	562.777034	484.364235	411.270651	529.963692	397.926326	532.756685	544.067084	311.266413	517.506276	514.554369	230.064259	513.863843	564.388596	313.541029	483.789970	503.178666	101.226749	499.495275	515.094820	114.584058	421.621007	451.168355	53.632362	442.783604	726.926808	86.630766	498.852800	615.366738	48.332573	537.560748	657.207878	71.502397	436.104860	597.545953	759.857899	188.007546	607.272192	672.972086	194.502626	641.287619	670.207999	210.242688	570.364521	592.728855	203.489381	562.936129	495.009259	224.137513	559.349966	469.055401	322.101582	536.985708	399.338308	200.017660	555.225389	315.778062	215.255311	529.215979	228.818474	214.396623	574.817681	318.131461	250.434280	518.884975	114.160907	231.623788	541.732490	118.662539	309.726439	468.762191	58.327860	277.557842	751.477639	81.893026	249.409921	674.169434	70.428579	302.663381	646.776966	46.400224	196.272634	
